# xmcd
# 
# Track frame offsets:
#     150
#     14188
#     22814
#     37651
#     51084
#     61928
#     77593
#     91389
#     107630
#     119166
#     132041
#     146602
#     157229
#     177436
#     189684
#     202591
#     214913
#     229601
#     244439
#     263764
# 
# Disc length: 3700
# 
# Revision: 4
# Processed by: cddbd v1.5.2PL0 Copyright (c) Steve Scherf et al.
# Submitted via: fre:ac v1.0.17
# 
DISCID=170e7214
DTITLE=Various Artist - 100 Chansons formidables (Disc:1)
DYEAR=2005
DGENRE=Chanson
TTITLE0=Edith Piaf - La Vie En Rose
TTITLE1=Henri Salvador - Maladie D'amour
TTITLE2=Georges Brassens - La Gorille
TTITLE3=Francis Lemarque - A Paris
TTITLE4=Gilbert Becaud - Me Que Me Que
TTITLE5=Juliette Greco - Il Y Avait
TTITLE6=Jacqueline Francois - Mademoiselle De Paris
TTITLE7=Henri Salvador - Ciel De Paris
TTITLE8=Luis Mariano - La Belle De Cadix
TTITLE9=Charles Trenet - La Romence De Paris
TTITLE10=Yves Montand - Les Enfants Qui S'aiment
TTITLE11=Jacques Brel - Il Y A
TTITLE12=Yvonne Printemps  - Plaisir  D'amour
TTITLE13=Charles Aznavour and Pierre Roche  - Il Pleut
TTITLE14=Juliette Greco - La Fiancee Du Pirate
TTITLE15=Charles Trenet - Uno Noix
TTITLE16=Les Compagnons De La Chanson - Mes Jeunes Annees
TTITLE17=Leo Ferre - Paris-canaille
TTITLE18=Juliette Greco - Barbara Song
TTITLE19=Ray Ventura - Qu'est-ce Qu'on Attend Pour Etre Heureux ?
EXTD=
EXTT0=
EXTT1=
EXTT2=
EXTT3=
EXTT4=
EXTT5=
EXTT6=
EXTT7=
EXTT8=
EXTT9=
EXTT10=
EXTT11=
EXTT12=
EXTT13=
EXTT14=
EXTT15=
EXTT16=
EXTT17=
EXTT18=
EXTT19=
PLAYORDER=
